<svg viewBox="0 0 35 35" xml:space="preserve"><switch><g><linearGradient gradientUnits="userSpaceOnUse" x1="10.0255" y1="51.6071" x2="10.0255" y2="51.6071"><stop offset="0" stop-color="#ceb57c"></stop><stop offset="1" stop-color="#9c8453"></stop></linearGradient><linearGradient id="9909201501024261" gradientUnits="userSpaceOnUse" x1="16.5068" y1="8.923" x2="16.5068" y2="30.1802"><stop offset="0" stop-color="#ceb57c"></stop><stop offset="1" stop-color="#9c8453"></stop></linearGradient><path d="M8.9 8.9l-7.2 7 7 .1-.1 2.7s-1.5 1.5-2 1.9c-3.2 3.3-3 4.6-3 4.6l6.2 5 2.2-1.4-1-1.3 2.3-3.9c1 .1 2.2.1 3.4.1 1.3 0 2.5-.1 3.2-.3 2.5-.8 3.9-3.7 4.4-4.7l2.4-.1c0-.3.8-2.7.8-2.7h4v-7H8.9zm10.5 13.4c-1 .3-3.5.3-5.5.2L16 19l6.8-.1c-.6 1-1.7 2.8-3.4 3.4z" fill="url(#9909201501024261)"></path></g></switch></svg>